<svg xmlns="http://www.w3.org/2000/svg" width="1400" height="700" viewBox="0 0 1400 700" font-family="Space Mono, monospace">
<rect width="1400" height="700" fill="#1a1e26"/>
<defs>
  <marker id="arrow" viewBox="0 0 10 10" refX="9" refY="5" markerWidth="7" markerHeight="7" orient="auto-start-reverse">
    <path d="M0,0 L10,5 L0,10 z" fill="#22d3ee"/>
  </marker>
  <marker id="arrowDim" viewBox="0 0 10 10" refX="9" refY="5" markerWidth="6" markerHeight="6" orient="auto-start-reverse">
    <path d="M0,0 L10,5 L0,10 z" fill="rgba(232,230,223,0.55)"/>
  </marker>
</defs>
<text x="40" y="42" fill="#e8e6df" font-family="Montserrat, sans-serif" font-size="22" font-weight="700">GASOline — Plugin Class Architecture</text>
<text x="40" y="64" fill="rgba(255,255,255,0.5)" font-family="Montserrat, sans-serif" font-size="12.5">Reusable C++ GAS framework (top) &#8594; game-specific implementation in The Resonance (bottom)</text>
<text x="40" y="102" fill="rgba(255,255,255,0.5)" font-size="11" letter-spacing="1.5">UNREAL / GAS BASE CLASSES</text>
<line x1="40" y1="110" x2="1360" y2="110" stroke="rgba(255,255,255,0.14)" stroke-width="1"/>
<rect x="40" y="122" width="230" height="40" rx="8" fill="rgba(255,255,255,0.03)" stroke="rgba(232,230,223,0.55)" stroke-width="1.3"/>
<text x="155.0" y="146" text-anchor="middle" fill="#e8e6df" font-size="12" font-weight="700">UAbilitySystemComponent</text>
<rect x="290" y="122" width="190" height="40" rx="8" fill="rgba(255,255,255,0.03)" stroke="rgba(232,230,223,0.55)" stroke-width="1.3"/>
<text x="385.0" y="146" text-anchor="middle" fill="#e8e6df" font-size="12" font-weight="700">UAttributeSet</text>
<rect x="500" y="122" width="190" height="40" rx="8" fill="rgba(255,255,255,0.03)" stroke="rgba(232,230,223,0.55)" stroke-width="1.3"/>
<text x="595.0" y="146" text-anchor="middle" fill="#e8e6df" font-size="12" font-weight="700">UGameplayAbility</text>
<rect x="710" y="122" width="190" height="40" rx="8" fill="rgba(255,255,255,0.03)" stroke="rgba(232,230,223,0.55)" stroke-width="1.3"/>
<text x="805.0" y="146" text-anchor="middle" fill="#e8e6df" font-size="12" font-weight="700">UGameplayEffect</text>
<rect x="920" y="122" width="200" height="40" rx="8" fill="rgba(255,255,255,0.03)" stroke="rgba(232,230,223,0.55)" stroke-width="1.3"/>
<text x="1020.0" y="146" text-anchor="middle" fill="#e8e6df" font-size="12" font-weight="700">UPrimaryDataAsset</text>
<text x="40" y="202" fill="#22d3ee" font-size="11" letter-spacing="1.5">GASOLINE PLUGIN &#8212; REUSABLE CORE</text>
<line x1="40" y1="210" x2="1360" y2="210" stroke="rgba(34,211,238,0.35)" stroke-width="1"/>
<rect x="40" y="224" width="260" height="100" rx="8" fill="rgba(34,211,238,0.06)" stroke="#22d3ee" stroke-width="1.3"/>
<text x="170.0" y="248" text-anchor="middle" fill="#22d3ee" font-size="13" font-weight="700">AGASO_CharacterBase</text>
<text x="170.0" y="264" text-anchor="middle" fill="rgba(255,255,255,0.5)" font-size="9.5" font-style="italic">extends ACharacter, IAbilitySystemInterface</text>
<line x1="50" y1="272" x2="290" y2="272" stroke="rgba(255,255,255,0.14)" stroke-width="1"/>
<text x="54" y="288" fill="#e8e6df" font-size="10.5">Owns the ASC + AttributeSet</text>
<text x="54" y="303" fill="#e8e6df" font-size="10.5">InitializeAbilitySystem()</text>
<rect x="330" y="224" width="210" height="100" rx="8" fill="rgba(34,211,238,0.06)" stroke="#22d3ee" stroke-width="1.3"/>
<text x="435.0" y="248" text-anchor="middle" fill="#22d3ee" font-size="13" font-weight="700">UGASO_ASC</text>
<text x="435.0" y="264" text-anchor="middle" fill="rgba(255,255,255,0.5)" font-size="9.5" font-style="italic">extends UAbilitySystemComponent</text>
<line x1="340" y1="272" x2="530" y2="272" stroke="rgba(255,255,255,0.14)" stroke-width="1"/>
<text x="344" y="288" fill="#e8e6df" font-size="10.5">InitAbilityActorInfo()</text>
<rect x="570" y="224" width="210" height="100" rx="8" fill="rgba(34,211,238,0.06)" stroke="#22d3ee" stroke-width="1.3"/>
<text x="675.0" y="248" text-anchor="middle" fill="#22d3ee" font-size="13" font-weight="700">UGASO_AttributeSet</text>
<text x="675.0" y="264" text-anchor="middle" fill="rgba(255,255,255,0.5)" font-size="9.5" font-style="italic">extends UAttributeSet</text>
<line x1="580" y1="272" x2="770" y2="272" stroke="rgba(255,255,255,0.14)" stroke-width="1"/>
<text x="584" y="288" fill="#e8e6df" font-size="10.5">Health / MaxHealth</text>
<text x="584" y="303" fill="#e8e6df" font-size="10.5">OnRep_Health(), OnRep_MaxHealth()</text>
<rect x="810" y="224" width="200" height="100" rx="8" fill="rgba(34,211,238,0.06)" stroke="#22d3ee" stroke-width="1.3"/>
<text x="910.0" y="248" text-anchor="middle" fill="#22d3ee" font-size="13" font-weight="700">UGASO_AbilityBase</text>
<text x="910.0" y="264" text-anchor="middle" fill="rgba(255,255,255,0.5)" font-size="9.5" font-style="italic">extends UGameplayAbility</text>
<line x1="820" y1="272" x2="1000" y2="272" stroke="rgba(255,255,255,0.14)" stroke-width="1"/>
<text x="824" y="288" fill="#e8e6df" font-size="10.5">Base class for all</text>
<text x="824" y="303" fill="#e8e6df" font-size="10.5">granted abilities</text>
<rect x="1040" y="224" width="200" height="100" rx="8" fill="rgba(34,211,238,0.06)" stroke="#22d3ee" stroke-width="1.3"/>
<text x="1140.0" y="248" text-anchor="middle" fill="#22d3ee" font-size="13" font-weight="700">UGASO_EffectBase</text>
<text x="1140.0" y="264" text-anchor="middle" fill="rgba(255,255,255,0.5)" font-size="9.5" font-style="italic">extends UGameplayEffect</text>
<line x1="1050" y1="272" x2="1230" y2="272" stroke="rgba(255,255,255,0.14)" stroke-width="1"/>
<text x="1054" y="288" fill="#e8e6df" font-size="10.5">Base class for all</text>
<text x="1054" y="303" fill="#e8e6df" font-size="10.5">granted effects</text>
<rect x="330" y="358" width="410" height="78" rx="8" fill="rgba(34,211,238,0.06)" stroke="#22d3ee" stroke-width="1.3"/>
<text x="535.0" y="382" text-anchor="middle" fill="#22d3ee" font-size="13" font-weight="700">UGASO_AbilitySet</text>
<text x="535.0" y="398" text-anchor="middle" fill="rgba(255,255,255,0.5)" font-size="9.5" font-style="italic">extends UPrimaryDataAsset  —  data-driven ability granting</text>
<line x1="340" y1="406" x2="730" y2="406" stroke="rgba(255,255,255,0.14)" stroke-width="1"/>
<text x="344" y="422" fill="#e8e6df" font-size="10.5">GrantedGameplayAbilities[] / GrantedGameplayEffects[] / GrantedAttributes[]</text>
<text x="344" y="437" fill="#e8e6df" font-size="10.5">GiveToAbilitySystem(ASC) → grants + tracks handles for clean removal</text>
<line x1="435.0" y1="224" x2="155.0" y2="162" stroke="rgba(232,230,223,0.55)" stroke-width="1.3" marker-end="url(#arrowDim)"/>
<line x1="675.0" y1="224" x2="385.0" y2="162" stroke="rgba(232,230,223,0.55)" stroke-width="1.3" marker-end="url(#arrowDim)"/>
<line x1="910.0" y1="224" x2="595.0" y2="162" stroke="rgba(232,230,223,0.55)" stroke-width="1.3" marker-end="url(#arrowDim)"/>
<line x1="1140.0" y1="224" x2="805.0" y2="162" stroke="rgba(232,230,223,0.55)" stroke-width="1.3" marker-end="url(#arrowDim)"/>
<line x1="535.0" y1="358" x2="1020.0" y2="162" stroke="rgba(232,230,223,0.55)" stroke-width="1.3" marker-end="url(#arrowDim)"/>
<line x1="300" y1="274.0" x2="330" y2="274.0" stroke="#22d3ee" stroke-width="1.3" marker-end="url(#arrow)"/>
<rect x="296.6" y="257.0" width="36.8" height="16" fill="#1a1e26"/>
<text x="315.0" y="268.0" text-anchor="middle" fill="#22d3ee" font-size="9.5">owns</text>
<path d="M360,358 Q260,338 385,324" fill="none" stroke="#22d3ee" stroke-width="1.3" marker-end="url(#arrow)"/>
<rect x="188.89999999999998" y="321" width="142.20000000000002" height="16" fill="#1a1e26"/>
<text x="260" y="332" text-anchor="middle" fill="#22d3ee" font-size="9.5">GiveToAbilitySystem()</text>
<text x="40" y="472" fill="#22d3ee" font-size="11" letter-spacing="1.5">THE RESONANCE &#8212; GAME-SPECIFIC (YH_ PREFIX)</text>
<line x1="40" y1="480" x2="1360" y2="480" stroke="rgba(34,211,238,0.35)" stroke-width="1"/>
<rect x="40" y="494" width="250" height="120" rx="8" fill="rgba(34,211,238,0.06)" stroke="#22d3ee" stroke-width="1.3" stroke-dasharray="5,4"/>
<text x="165.0" y="518" text-anchor="middle" fill="#22d3ee" font-size="12" font-weight="700">YH_PlayerAttributeSet / YH_EnemyAttributeSet</text>
<text x="165.0" y="534" text-anchor="middle" fill="rgba(255,255,255,0.5)" font-size="9.5" font-style="italic">extend UGASO_AttributeSet</text>
<line x1="50" y1="542" x2="280" y2="542" stroke="rgba(255,255,255,0.14)" stroke-width="1"/>
<text x="54" y="558" fill="#e8e6df" font-size="10.5">Per-actor stat pools driving</text>
<text x="54" y="573" fill="#e8e6df" font-size="10.5">the combat + vitals HUD</text>
<rect x="330" y="494" width="330" height="120" rx="8" fill="rgba(34,211,238,0.06)" stroke="#22d3ee" stroke-width="1.3" stroke-dasharray="5,4"/>
<text x="495.0" y="518" text-anchor="middle" fill="#22d3ee" font-size="12" font-weight="700">YH_GA_* (6 abilities)</text>
<text x="495.0" y="534" text-anchor="middle" fill="rgba(255,255,255,0.5)" font-size="9.5" font-style="italic">extend UGASO_AbilityBase</text>
<line x1="340" y1="542" x2="650" y2="542" stroke="rgba(255,255,255,0.14)" stroke-width="1"/>
<text x="344" y="558" fill="#e8e6df" font-size="10.5">SwordAttack, GunAttack, EnemyAttack,</text>
<text x="344" y="573" fill="#e8e6df" font-size="10.5">Finisher, HitReact, Death</text>
<rect x="700" y="494" width="330" height="120" rx="8" fill="rgba(34,211,238,0.06)" stroke="#22d3ee" stroke-width="1.3" stroke-dasharray="5,4"/>
<text x="865.0" y="518" text-anchor="middle" fill="#22d3ee" font-size="12" font-weight="700">YH_GE_* (6 effects)</text>
<text x="865.0" y="534" text-anchor="middle" fill="rgba(255,255,255,0.5)" font-size="9.5" font-style="italic">extend UGASO_EffectBase</text>
<line x1="710" y1="542" x2="1020" y2="542" stroke="rgba(255,255,255,0.14)" stroke-width="1"/>
<text x="714" y="558" fill="#e8e6df" font-size="10.5">Damage, AOE_Damage, EnemyAttackDamage,</text>
<text x="714" y="573" fill="#e8e6df" font-size="10.5">GunDamage, Heal, HealOverTime</text>
<rect x="1070" y="494" width="170" height="120" rx="8" fill="rgba(34,211,238,0.06)" stroke="#22d3ee" stroke-width="1.3" stroke-dasharray="5,4"/>
<text x="1155.0" y="518" text-anchor="middle" fill="#22d3ee" font-size="12" font-weight="700">Actor Components</text>
<line x1="1080" y1="526" x2="1230" y2="526" stroke="rgba(255,255,255,0.14)" stroke-width="1"/>
<text x="1084" y="542" fill="#e8e6df" font-size="10.5">YH_ComboManager</text>
<text x="1084" y="557" fill="#e8e6df" font-size="10.5">YH_WeaponManager</text>
<text x="1084" y="572" fill="#e8e6df" font-size="10.5">(combo windows, weapon</text>
<text x="1084" y="587" fill="#e8e6df" font-size="10.5">swap/attach logic)</text>
<line x1="165.0" y1="494" x2="675.0" y2="324" stroke="rgba(232,230,223,0.55)" stroke-width="1.3" marker-end="url(#arrowDim)"/>
<line x1="495.0" y1="494" x2="910.0" y2="324" stroke="rgba(232,230,223,0.55)" stroke-width="1.3" marker-end="url(#arrowDim)"/>
<line x1="865.0" y1="494" x2="1140.0" y2="324" stroke="rgba(232,230,223,0.55)" stroke-width="1.3" marker-end="url(#arrowDim)"/>
<line x1="60" y1="654" x2="100" y2="654" stroke="rgba(232,230,223,0.55)" stroke-width="1.3" stroke-dasharray="5,4" marker-end="url(#arrowDim)"/>
<text x="108" y="658" fill="rgba(255,255,255,0.5)" font-size="10.5">extends / inherits from</text>
<line x1="330" y1="654" x2="370" y2="654" stroke="#22d3ee" stroke-width="1.3" marker-end="url(#arrow)"/>
<text x="378" y="658" fill="rgba(255,255,255,0.5)" font-size="10.5">owns / calls at runtime</text>
<rect x="560" y="638" width="14" height="14" rx="3" fill="rgba(255,255,255,0.03)" stroke="rgba(232,230,223,0.55)" stroke-width="1.3" stroke-dasharray="4,3"/>
<text x="580" y="658" fill="rgba(255,255,255,0.5)" font-size="10.5">game-layer class (The Resonance)</text>
</svg>